Het gaat goed met Roué Verveer. De Volkskrant vindt hem "verfrissend geëngageerd" en het NRC Handelsblad roemt zijn fantasie: "Hij vuurt grappen ogenschijnlijk uit de losse pols af, alsof hij ze ter plekke verzint." Geen wonder, want Roué maakt al jaren furore bij de Comedytrain met zijn mooie verhalen en scherpe improvisaties en in zijn theatershows buldert de gulle lach door de zaal.

Maar als het goed met je gaat, neemt de angst om het weer kwijt te raken toe. En dat is precies het verhaal achter 'Voorwaardelijk Vrij'. Verveer prikkelt, stemt tot nadenken, en doet dat met heel veel humor.

Voorwaardelijk Vrij is opgenomen in De Meervaart in Amsterdam.

General
Format                           : AVI
Format/Info                      : Audio Video Interleave
File size                        : 701 MiB
Duration                         : 1h 38mn
Overall bit rate                 : 998 Kbps

Video
ID                               : 0
Format                           : MPEG-4 Visual
Format profile                   : Simple@L3
Format settings, BVOP            : No
Format settings, QPel            : No
Format settings, GMC             : No warppoints
Format settings, Matrix          : Default (H.263)
Codec ID                         : XVID
Codec ID/Hint                    : XviD
Duration                         : 1h 38mn
Bit rate                         : 799 Kbps
Width                            : 672 pixels
Height                           : 368 pixels
Display aspect ratio             : 16:9
Frame rate                       : 30.000 fps
Color space                      : YUV
Chroma subsampling               : 4:2:0
Bit depth                        : 8 bits
Scan type                        : Progressive
Bits/(Pixel*Frame)               : 0.108
Stream size                      : 562 MiB (80%)
Writing library                  : XviD 1.1.2 (UTC 2006-11-01)

Audio
ID                               : 1
Format                           : AC-3
Format/Info                      : Audio Coding 3
Mode extension                   : CM (complete main)
Codec ID                         : 2000
Duration                         : 1h 38mn
Bit rate mode                    : Constant
Bit rate                         : 192 Kbps
Channel(s)                       : 2 channels
Channel positions                : Front: L R
Sampling rate                    : 48.0 KHz
Bit depth                        : 16 bits
Stream size                      : 135 MiB (19%)
Alignment                        : Split accross interleaves
Interleave, duration             : 500 ms (15.00 video frames)
Interleave, preload duration     : 500 ms

Leave your comment about Audio/Video/Movie.